HIERARCHY
ROOT Hips
{
	OFFSET -3.958830 18.904000 13.208200
	CHANNELS 6 Xposition Yposition Zposition Zrotation Yrotation Xrotation 
	JOINT LHipJoint
	{
		OFFSET 0.000000 0.000000 0.000000
		CHANNELS 3 Zrotation Yrotation Xrotation
		JOINT LeftUpLeg
		{
			OFFSET 1.800000 -1.400000 0.085000
			CHANNELS 3 Zrotation Yrotation Xrotation
			JOINT LeftLeg
			{
				OFFSET 2.215000 -6.000000 0.000000
				CHANNELS 3 Zrotation Yrotation Xrotation
				JOINT LeftFoot
				{
					OFFSET 2.500000 -6.900000 0.000000
					CHANNELS 3 Zrotation Yrotation Xrotation
					JOINT LeftToeBase
					{
						OFFSET 0.200000 -0.500000 1.950000
						CHANNELS 3 Zrotation Yrotation Xrotation
						End Site
						{
							OFFSET 0.000000 0.000000 0.000000
						}
					}
				}
			}
		}
	}
	JOINT RHipJoint
	{
		OFFSET 0.000000 0.000000 0.000000
		CHANNELS 3 Zrotation Yrotation Xrotation
		JOINT RightUpLeg
		{
			OFFSET -1.800000 -1.400000 0.085000
			CHANNELS 3 Zrotation Yrotation Xrotation
			JOINT RightLeg
			{
				OFFSET -2.215000 -6.000000 0.000000
				CHANNELS 3 Zrotation Yrotation Xrotation
				JOINT RightFoot
				{
					OFFSET -2.500000 -6.900000 0.000000
					CHANNELS 3 Zrotation Yrotation Xrotation
					JOINT RightToeBase
					{
						OFFSET -0.200000 -0.500000 1.950000
						CHANNELS 3 Zrotation Yrotation Xrotation
						End Site
						{
							OFFSET 0.000000 0.000000 0.000000
						}
					}
				}
			}
		}
	}
	JOINT LowerBack
	{
		OFFSET 0.000000 0.000000 0.000000
		CHANNELS 3 Zrotation Yrotation Xrotation
		JOINT Spine
		{
			OFFSET -0.087000 1.940000 -0.288900
			CHANNELS 3 Zrotation Yrotation Xrotation
			JOINT Spine1
			{
				OFFSET 0.000000 1.950000 0.060000
				CHANNELS 3 Zrotation Yrotation Xrotation
				JOINT Neck
				{
					OFFSET 0.000000 0.000000 0.000000
					CHANNELS 3 Zrotation Yrotation Xrotation
					JOINT Neck1
					{
						OFFSET 0.000000 1.600000 0.340000
						CHANNELS 3 Zrotation Yrotation Xrotation
						JOINT Head
						{
							OFFSET 0.000000 1.667000 -0.240000
							CHANNELS 3 Zrotation Yrotation Xrotation
							End Site
							{
								OFFSET 0.000000 0.000000 0.000000
							}
						}
					}
				}
				JOINT LeftShoulder
				{
					OFFSET 0.000000 0.000000 0.000000
					CHANNELS 3 Zrotation Yrotation Xrotation
					JOINT LeftArm
					{
						OFFSET 2.700000 1.550000 -0.730000
						CHANNELS 3 Zrotation Yrotation Xrotation
						JOINT LeftForeArm
						{
							OFFSET 5.450000 0.000000 0.000000
							CHANNELS 3 Zrotation Yrotation Xrotation
							JOINT LeftHand
							{
								OFFSET 3.450000 0.000000 0.000000
								CHANNELS 3 Zrotation Yrotation Xrotation
								JOINT LeftHandIndex1
								{
									OFFSET 0.750000 0.000000 0.000000
									CHANNELS 3 Zrotation Yrotation Xrotation
									End Site
									{
										OFFSET 0.000000 0.000000 0.000000
									}
								}
							}
						}
					}
				}
				JOINT RightShoulder
				{
					OFFSET 0.000000 0.000000 0.000000
					CHANNELS 3 Zrotation Yrotation Xrotation
					JOINT RightArm
					{
						OFFSET -2.700000 1.550000 -0.730000
						CHANNELS 3 Zrotation Yrotation Xrotation
						JOINT RightForeArm
						{
							OFFSET -5.450000 0.000000 0.000000
							CHANNELS 3 Zrotation Yrotation Xrotation
							JOINT RightHand
							{
								OFFSET -3.450000 0.000000 0.000000
								CHANNELS 3 Zrotation Yrotation Xrotation
								JOINT RightHandIndex1
								{
									OFFSET -0.750000 0.000000 0.000000
									CHANNELS 3 Zrotation Yrotation Xrotation
									End Site
									{
										OFFSET 0.000000 0.000000 0.000000
									}
								}
							}
						}
					}
				}
			}
		}
	}
}
MOTION
Frames: 4
Frame Time: 0.016667
0.663300 17.179950 -2.113110 -2.666919 -6.426547 7.845033 -14.870645 12.846012 2.658386 -0.393653 -2.607927 -17.814325 -3.338947 6.135113 23.931630 -0.594528 5.157237 3.255415 -0.441070 -0.923490 -0.629820 18.652032 -10.705634 3.351661 0.095722 5.004954 -31.734153 3.895341 -4.157926 16.370933 0.520786 -2.872483 3.761185 -0.327090 1.344660 0.318370 -4.528517 -0.544985 -6.901775 15.007818 -1.205569 5.250515 -6.646050 -0.399315 8.410299 1.747903 -1.266012 -6.780368 -3.318391 0.610386 30.257905 -5.045090 0.320450 13.938330 -11.439004 5.848707 1.853965 -43.883957 1.667270 -2.098398 -79.359762 -59.440269 43.655389 -4.536470 3.638275 0.088380 0.946640 -0.887520 0.261430 7.641743 -6.132733 3.407262 50.064041 -6.408053 -10.830657 43.177229 50.966776 15.248668 1.555352 -1.989571 -0.569900 0.349150 0.598640 -0.044860 
0.712200 17.112330 -2.160520 -2.309756 -6.335048 8.781282 -14.870817 12.734838 2.718115 -1.019363 -2.834413 -18.911658 -3.576842 6.176130 24.094035 -0.545515 5.123518 3.275634 -0.495140 -0.958900 -0.668930 18.670121 -10.588459 3.486382 0.090752 5.463787 -34.150838 2.973130 -3.804584 15.778590 0.568889 -2.688628 3.832932 -0.363520 1.365480 0.329080 -4.562615 -0.494701 -7.016400 15.553617 -1.418955 5.802696 -6.889481 -0.485885 7.623744 1.881876 -1.247632 -6.973774 -3.041642 0.375992 29.008884 -5.956570 0.753600 14.576060 -12.536292 5.067394 1.995657 -42.705709 2.978071 -3.179361 -75.634877 -58.388896 40.086294 -4.566959 3.616759 0.043780 0.976430 -0.895060 0.256620 8.401937 -5.312040 3.616587 50.680320 -6.582202 -11.485161 42.255306 52.529217 15.228025 1.577974 -1.985840 -0.554130 0.333110 0.609480 -0.022580 
0.757780 17.029970 -2.213390 -1.790029 -6.053019 9.186957 -14.874109 12.658257 2.809062 -1.732296 -3.116171 -19.823983 -3.818608 6.294010 24.734910 -0.473756 5.130783 3.261150 -0.502140 -0.937000 -0.666770 18.675273 -10.476556 3.615351 -0.406928 5.847537 -36.525307 2.477015 -3.796671 16.803028 0.564012 -2.648927 3.853126 -0.385440 1.342600 0.333400 -4.569101 -0.522568 -7.176163 15.832056 -1.799817 6.996468 -7.055378 -0.667531 6.593909 1.985055 -1.308122 -7.188677 -3.019039 0.294716 28.460790 -6.539200 1.088070 14.254100 -13.852500 4.144715 2.170055 -41.568248 4.244792 -4.260743 -71.513985 -57.866022 36.777316 -4.558799 3.572237 0.024700 0.969310 -0.860590 0.254560 9.429520 -4.229847 3.765294 51.063289 -6.350426 -12.056055 40.518490 54.019065 14.882311 1.608917 -1.947802 -0.513850 0.324810 0.593310 -0.003250 
0.798790 16.938590 -2.255730 -1.195294 -5.554504 9.295859 -14.896871 12.580986 2.901060 -2.434179 -3.518664 -20.642601 -3.970369 6.488242 26.013006 -0.484547 5.308304 3.183169 -0.504070 -0.947130 -0.658590 18.671266 -10.331750 3.728405 -1.551711 6.194091 -38.926879 2.501358 -4.146381 19.404265 0.532859 -2.847538 3.752514 -0.379690 1.333600 0.329620 -4.537871 -0.629303 -7.305155 15.750801 -2.195793 7.989402 -6.820716 -0.921475 5.851523 1.943009 -1.422437 -7.185343 -3.119444 0.552204 27.932409 -6.648030 1.165430 13.443930 -15.191779 3.313222 2.186674 -40.620634 5.059332 -5.104171 -66.468751 -57.214751 32.933156 -4.560524 3.515086 0.057720 0.960560 -0.857250 0.235490 10.831117 -3.270540 3.701383 50.631563 -5.831559 -12.338234 38.671774 55.536557 14.551210 1.596298 -1.910104 -0.533660 0.336360 0.612610 -0.024080 
